%TF.GenerationSoftware,KiCad,Pcbnew,(6.0.11-0)*%
%TF.CreationDate,2023-02-15T22:41:09-07:00*%
%TF.ProjectId,gamepad,67616d65-7061-4642-9e6b-696361645f70,rev?*%
%TF.SameCoordinates,Original*%
%TF.FileFunction,Drillmap*%
%TF.FilePolarity,Positive*%
%FSLAX45Y45*%
G04 Gerber Fmt 4.5, Leading zero omitted, Abs format (unit mm)*
G04 Created by KiCad (PCBNEW (6.0.11-0)) date 2023-02-15 22:41:09*
%MOMM*%
%LPD*%
G01*
G04 APERTURE LIST*
%ADD10C,0.100000*%
%ADD11C,0.200000*%
G04 APERTURE END LIST*
D10*
X10000000Y-10000000D02*
X23000000Y-10000000D01*
X23000000Y-10000000D02*
X23000000Y-14500000D01*
X23000000Y-14500000D02*
X10000000Y-14500000D01*
X10000000Y-14500000D02*
X10000000Y-10000000D01*
D11*
X10252619Y-14815476D02*
X10252619Y-14615476D01*
X10300238Y-14615476D01*
X10328810Y-14625000D01*
X10347857Y-14644048D01*
X10357381Y-14663095D01*
X10366905Y-14701190D01*
X10366905Y-14729762D01*
X10357381Y-14767857D01*
X10347857Y-14786905D01*
X10328810Y-14805952D01*
X10300238Y-14815476D01*
X10252619Y-14815476D01*
X10452619Y-14815476D02*
X10452619Y-14682143D01*
X10452619Y-14720238D02*
X10462143Y-14701190D01*
X10471667Y-14691667D01*
X10490714Y-14682143D01*
X10509762Y-14682143D01*
X10576429Y-14815476D02*
X10576429Y-14682143D01*
X10576429Y-14615476D02*
X10566905Y-14625000D01*
X10576429Y-14634524D01*
X10585952Y-14625000D01*
X10576429Y-14615476D01*
X10576429Y-14634524D01*
X10700238Y-14815476D02*
X10681190Y-14805952D01*
X10671667Y-14786905D01*
X10671667Y-14615476D01*
X10805000Y-14815476D02*
X10785952Y-14805952D01*
X10776429Y-14786905D01*
X10776429Y-14615476D01*
X11033571Y-14815476D02*
X11033571Y-14615476D01*
X11100238Y-14758333D01*
X11166905Y-14615476D01*
X11166905Y-14815476D01*
X11347857Y-14815476D02*
X11347857Y-14710714D01*
X11338333Y-14691667D01*
X11319286Y-14682143D01*
X11281190Y-14682143D01*
X11262143Y-14691667D01*
X11347857Y-14805952D02*
X11328809Y-14815476D01*
X11281190Y-14815476D01*
X11262143Y-14805952D01*
X11252619Y-14786905D01*
X11252619Y-14767857D01*
X11262143Y-14748809D01*
X11281190Y-14739286D01*
X11328809Y-14739286D01*
X11347857Y-14729762D01*
X11443095Y-14682143D02*
X11443095Y-14882143D01*
X11443095Y-14691667D02*
X11462143Y-14682143D01*
X11500238Y-14682143D01*
X11519286Y-14691667D01*
X11528809Y-14701190D01*
X11538333Y-14720238D01*
X11538333Y-14777381D01*
X11528809Y-14796428D01*
X11519286Y-14805952D01*
X11500238Y-14815476D01*
X11462143Y-14815476D01*
X11443095Y-14805952D01*
X11624048Y-14796428D02*
X11633571Y-14805952D01*
X11624048Y-14815476D01*
X11614524Y-14805952D01*
X11624048Y-14796428D01*
X11624048Y-14815476D01*
X11624048Y-14691667D02*
X11633571Y-14701190D01*
X11624048Y-14710714D01*
X11614524Y-14701190D01*
X11624048Y-14691667D01*
X11624048Y-14710714D01*
M02*
