%TF.GenerationSoftware,KiCad,Pcbnew,(6.0.11-0)*%
%TF.CreationDate,2023-02-15T22:40:40-07:00*%
%TF.ProjectId,gamepad,67616d65-7061-4642-9e6b-696361645f70,rev?*%
%TF.SameCoordinates,Original*%
%TF.FileFunction,Soldermask,Bot*%
%TF.FilePolarity,Negative*%
%FSLAX46Y46*%
G04 Gerber Fmt 4.6, Leading zero omitted, Abs format (unit mm)*
G04 Created by KiCad (PCBNEW (6.0.11-0)) date 2023-02-15 22:40:40*
%MOMM*%
%LPD*%
G01*
G04 APERTURE LIST*
G04 Aperture macros list*
%AMRotRect*
0 Rectangle, with rotation*
0 The origin of the aperture is its center*
0 $1 length*
0 $2 width*
0 $3 Rotation angle, in degrees counterclockwise*
0 Add horizontal line*
21,1,$1,$2,0,0,$3*%
G04 Aperture macros list end*
%ADD10RotRect,1.800000X1.800000X225.000000*%
%ADD11C,1.800000*%
%ADD12RotRect,1.800000X1.800000X315.000000*%
%ADD13C,1.400000*%
%ADD14O,1.400000X1.400000*%
%ADD15C,2.000000*%
%ADD16R,1.800000X1.800000*%
%ADD17R,1.700000X1.700000*%
%ADD18O,1.700000X1.700000*%
G04 APERTURE END LIST*
D10*
%TO.C,D5*%
X224767963Y-137414849D03*
D11*
X222971912Y-139210900D03*
%TD*%
D12*
%TO.C,D4*%
X222583082Y-105584365D03*
D11*
X224379133Y-107380416D03*
%TD*%
D10*
%TO.C,D3*%
X107764349Y-105572566D03*
D11*
X105968298Y-107368617D03*
%TD*%
D12*
%TO.C,D2*%
X106680000Y-137160000D03*
D11*
X108476051Y-138956051D03*
%TD*%
D13*
%TO.C,R5*%
X218440000Y-142240000D03*
D14*
X210820000Y-142240000D03*
%TD*%
D13*
%TO.C,R4*%
X218440000Y-114300000D03*
D14*
X226060000Y-114300000D03*
%TD*%
%TO.C,R3*%
X104140000Y-114300000D03*
D13*
X111760000Y-114300000D03*
%TD*%
%TO.C,R2*%
X113030000Y-142240000D03*
D14*
X120650000Y-142240000D03*
%TD*%
D15*
%TO.C,SW5*%
X152910000Y-105000000D03*
X146410000Y-105000000D03*
X152910000Y-109500000D03*
X146410000Y-109500000D03*
%TD*%
%TO.C,SW3*%
X118750000Y-129250000D03*
X118750000Y-135750000D03*
X123250000Y-135750000D03*
X123250000Y-129250000D03*
%TD*%
%TO.C,SW8*%
X193750000Y-125750000D03*
X193750000Y-119250000D03*
X198250000Y-119250000D03*
X198250000Y-125750000D03*
%TD*%
D13*
%TO.C,R1*%
X170180000Y-117270000D03*
D14*
X170180000Y-124890000D03*
%TD*%
D11*
%TO.C,D1*%
X166290000Y-116880000D03*
D16*
X163750000Y-116880000D03*
%TD*%
D17*
%TO.C,J1*%
X189225000Y-138971190D03*
D18*
X189225000Y-141511190D03*
X186685000Y-138971190D03*
X186685000Y-141511190D03*
X184145000Y-138971190D03*
X184145000Y-141511190D03*
X181605000Y-138971190D03*
X181605000Y-141511190D03*
X179065000Y-138971190D03*
X179065000Y-141511190D03*
X176525000Y-138971190D03*
X176525000Y-141511190D03*
X173985000Y-138971190D03*
X173985000Y-141511190D03*
X171445000Y-138971190D03*
X171445000Y-141511190D03*
X168905000Y-138971190D03*
X168905000Y-141511190D03*
X166365000Y-138971190D03*
X166365000Y-141511190D03*
X163825000Y-138971190D03*
X163825000Y-141511190D03*
X161285000Y-138971190D03*
X161285000Y-141511190D03*
X158745000Y-138971190D03*
X158745000Y-141511190D03*
X156205000Y-138971190D03*
X156205000Y-141511190D03*
X153665000Y-138971190D03*
X153665000Y-141511190D03*
X151125000Y-138971190D03*
X151125000Y-141511190D03*
X148585000Y-138971190D03*
X148585000Y-141511190D03*
X146045000Y-138971190D03*
X146045000Y-141511190D03*
X143505000Y-138971190D03*
X143505000Y-141511190D03*
X140965000Y-138971190D03*
X140965000Y-141511190D03*
%TD*%
D15*
%TO.C,SW11*%
X219750000Y-125750000D03*
X219750000Y-119250000D03*
X224250000Y-125750000D03*
X224250000Y-119250000D03*
%TD*%
%TO.C,SW1*%
X108750000Y-125750000D03*
X108750000Y-119250000D03*
X113250000Y-119250000D03*
X113250000Y-125750000D03*
%TD*%
%TO.C,SW7*%
X183590000Y-105000000D03*
X177090000Y-105000000D03*
X177090000Y-109500000D03*
X183590000Y-109500000D03*
%TD*%
%TO.C,SW10*%
X206750000Y-109250000D03*
X206750000Y-115750000D03*
X211250000Y-109250000D03*
X211250000Y-115750000D03*
%TD*%
%TO.C,SW2*%
X118750000Y-115750000D03*
X118750000Y-109250000D03*
X123250000Y-115750000D03*
X123250000Y-109250000D03*
%TD*%
%TO.C,SW4*%
X128750000Y-119250000D03*
X128750000Y-125750000D03*
X133250000Y-119250000D03*
X133250000Y-125750000D03*
%TD*%
%TO.C,SW9*%
X206750000Y-135750000D03*
X206750000Y-129250000D03*
X211250000Y-135750000D03*
X211250000Y-129250000D03*
%TD*%
%TO.C,SW6*%
X161750000Y-105000000D03*
X168250000Y-105000000D03*
X161750000Y-109500000D03*
X168250000Y-109500000D03*
%TD*%
M02*
