M48
; DRILL file {KiCad (6.0.11-0)} date Wednesday, February 15, 2023 at 10:41:08 PM
; FORMAT={-:-/ absolute / metric / decimal}
; #@! TF.CreationDate,2023-02-15T22:41:08-07:00
; #@! TF.GenerationSoftware,Kicad,Pcbnew,(6.0.11-0)
; #@! TF.FileFunction,Plated,1,2,PTH
FMAT,2
METRIC
; #@! TA.AperFunction,Plated,PTH,ComponentDrill
T1C0.700
; #@! TA.AperFunction,Plated,PTH,ComponentDrill
T2C0.900
; #@! TA.AperFunction,Plated,PTH,ComponentDrill
T3C1.000
; #@! TA.AperFunction,Plated,PTH,ComponentDrill
T4C1.100
%
G90
G05
T1
X104.14Y-114.3
X111.76Y-114.3
X113.03Y-142.24
X120.65Y-142.24
X170.18Y-117.27
X170.18Y-124.89
X210.82Y-142.24
X218.44Y-114.3
X218.44Y-142.24
X226.06Y-114.3
T2
X105.968Y-107.369
X106.68Y-137.16
X107.764Y-105.573
X108.476Y-138.956
X163.75Y-116.88
X166.29Y-116.88
X222.583Y-105.584
X222.972Y-139.211
X224.379Y-107.38
X224.768Y-137.415
T3
X140.965Y-138.971
X140.965Y-141.511
X143.505Y-138.971
X143.505Y-141.511
X146.045Y-138.971
X146.045Y-141.511
X148.585Y-138.971
X148.585Y-141.511
X151.125Y-138.971
X151.125Y-141.511
X153.665Y-138.971
X153.665Y-141.511
X156.205Y-138.971
X156.205Y-141.511
X158.745Y-138.971
X158.745Y-141.511
X161.285Y-138.971
X161.285Y-141.511
X163.825Y-138.971
X163.825Y-141.511
X166.365Y-138.971
X166.365Y-141.511
X168.905Y-138.971
X168.905Y-141.511
X171.445Y-138.971
X171.445Y-141.511
X173.985Y-138.971
X173.985Y-141.511
X176.525Y-138.971
X176.525Y-141.511
X179.065Y-138.971
X179.065Y-141.511
X181.605Y-138.971
X181.605Y-141.511
X184.145Y-138.971
X184.145Y-141.511
X186.685Y-138.971
X186.685Y-141.511
X189.225Y-138.971
X189.225Y-141.511
T4
X108.75Y-119.25
X108.75Y-125.75
X113.25Y-119.25
X113.25Y-125.75
X118.75Y-109.25
X118.75Y-115.75
X118.75Y-129.25
X118.75Y-135.75
X123.25Y-109.25
X123.25Y-115.75
X123.25Y-129.25
X123.25Y-135.75
X128.75Y-119.25
X128.75Y-125.75
X133.25Y-119.25
X133.25Y-125.75
X146.41Y-105.0
X146.41Y-109.5
X152.91Y-105.0
X152.91Y-109.5
X161.75Y-105.0
X161.75Y-109.5
X168.25Y-105.0
X168.25Y-109.5
X177.09Y-105.0
X177.09Y-109.5
X183.59Y-105.0
X183.59Y-109.5
X193.75Y-119.25
X193.75Y-125.75
X198.25Y-119.25
X198.25Y-125.75
X206.75Y-109.25
X206.75Y-115.75
X206.75Y-129.25
X206.75Y-135.75
X211.25Y-109.25
X211.25Y-115.75
X211.25Y-129.25
X211.25Y-135.75
X219.75Y-119.25
X219.75Y-125.75
X224.25Y-119.25
X224.25Y-125.75
T0
M30
