%TF.GenerationSoftware,KiCad,Pcbnew,(6.0.11-0)*%
%TF.CreationDate,2023-02-15T22:41:09-07:00*%
%TF.ProjectId,gamepad,67616d65-7061-4642-9e6b-696361645f70,rev?*%
%TF.SameCoordinates,Original*%
%TF.FileFunction,Drillmap*%
%TF.FilePolarity,Positive*%
%FSLAX45Y45*%
G04 Gerber Fmt 4.5, Leading zero omitted, Abs format (unit mm)*
G04 Created by KiCad (PCBNEW (6.0.11-0)) date 2023-02-15 22:41:09*
%MOMM*%
%LPD*%
G01*
G04 APERTURE LIST*
%ADD10C,0.100000*%
%ADD11C,0.200000*%
%ADD12C,0.070000*%
%ADD13C,0.090000*%
%ADD14C,0.110000*%
G04 APERTURE END LIST*
D10*
X10000000Y-10000000D02*
X23000000Y-10000000D01*
X23000000Y-10000000D02*
X23000000Y-14500000D01*
X23000000Y-14500000D02*
X10000000Y-14500000D01*
X10000000Y-14500000D02*
X10000000Y-10000000D01*
D11*
D12*
X10379000Y-11395000D02*
X10449000Y-11465000D01*
X10449000Y-11395000D02*
X10379000Y-11465000D01*
X11141000Y-11395000D02*
X11211000Y-11465000D01*
X11211000Y-11395000D02*
X11141000Y-11465000D01*
X11268000Y-14189000D02*
X11338000Y-14259000D01*
X11338000Y-14189000D02*
X11268000Y-14259000D01*
X12030000Y-14189000D02*
X12100000Y-14259000D01*
X12100000Y-14189000D02*
X12030000Y-14259000D01*
X16983000Y-11692000D02*
X17053000Y-11762000D01*
X17053000Y-11692000D02*
X16983000Y-11762000D01*
X16983000Y-12454000D02*
X17053000Y-12524000D01*
X17053000Y-12454000D02*
X16983000Y-12524000D01*
X21047000Y-14189000D02*
X21117000Y-14259000D01*
X21117000Y-14189000D02*
X21047000Y-14259000D01*
X21809000Y-11395000D02*
X21879000Y-11465000D01*
X21879000Y-11395000D02*
X21809000Y-11465000D01*
X21809000Y-14189000D02*
X21879000Y-14259000D01*
X21879000Y-14189000D02*
X21809000Y-14259000D01*
X22571000Y-11395000D02*
X22641000Y-11465000D01*
X22641000Y-11395000D02*
X22571000Y-11465000D01*
D13*
X10641830Y-10736862D02*
G75*
G03*
X10641830Y-10736862I-45000J0D01*
G01*
X10713000Y-13716000D02*
G75*
G03*
X10713000Y-13716000I-45000J0D01*
G01*
X10821435Y-10557257D02*
G75*
G03*
X10821435Y-10557257I-45000J0D01*
G01*
X10892605Y-13895605D02*
G75*
G03*
X10892605Y-13895605I-45000J0D01*
G01*
X16420000Y-11688000D02*
G75*
G03*
X16420000Y-11688000I-45000J0D01*
G01*
X16674000Y-11688000D02*
G75*
G03*
X16674000Y-11688000I-45000J0D01*
G01*
X22303308Y-10558437D02*
G75*
G03*
X22303308Y-10558437I-45000J0D01*
G01*
X22342191Y-13921090D02*
G75*
G03*
X22342191Y-13921090I-45000J0D01*
G01*
X22482913Y-10738042D02*
G75*
G03*
X22482913Y-10738042I-45000J0D01*
G01*
X22521796Y-13741485D02*
G75*
G03*
X22521796Y-13741485I-45000J0D01*
G01*
D10*
X14096500Y-13847119D02*
X14096500Y-13947119D01*
X14046500Y-13897119D02*
X14146500Y-13897119D01*
X14096500Y-14101119D02*
X14096500Y-14201119D01*
X14046500Y-14151119D02*
X14146500Y-14151119D01*
X14350500Y-13847119D02*
X14350500Y-13947119D01*
X14300500Y-13897119D02*
X14400500Y-13897119D01*
X14350500Y-14101119D02*
X14350500Y-14201119D01*
X14300500Y-14151119D02*
X14400500Y-14151119D01*
X14604500Y-13847119D02*
X14604500Y-13947119D01*
X14554500Y-13897119D02*
X14654500Y-13897119D01*
X14604500Y-14101119D02*
X14604500Y-14201119D01*
X14554500Y-14151119D02*
X14654500Y-14151119D01*
X14858500Y-13847119D02*
X14858500Y-13947119D01*
X14808500Y-13897119D02*
X14908500Y-13897119D01*
X14858500Y-14101119D02*
X14858500Y-14201119D01*
X14808500Y-14151119D02*
X14908500Y-14151119D01*
X15112500Y-13847119D02*
X15112500Y-13947119D01*
X15062500Y-13897119D02*
X15162500Y-13897119D01*
X15112500Y-14101119D02*
X15112500Y-14201119D01*
X15062500Y-14151119D02*
X15162500Y-14151119D01*
X15366500Y-13847119D02*
X15366500Y-13947119D01*
X15316500Y-13897119D02*
X15416500Y-13897119D01*
X15366500Y-14101119D02*
X15366500Y-14201119D01*
X15316500Y-14151119D02*
X15416500Y-14151119D01*
X15620500Y-13847119D02*
X15620500Y-13947119D01*
X15570500Y-13897119D02*
X15670500Y-13897119D01*
X15620500Y-14101119D02*
X15620500Y-14201119D01*
X15570500Y-14151119D02*
X15670500Y-14151119D01*
X15874500Y-13847119D02*
X15874500Y-13947119D01*
X15824500Y-13897119D02*
X15924500Y-13897119D01*
X15874500Y-14101119D02*
X15874500Y-14201119D01*
X15824500Y-14151119D02*
X15924500Y-14151119D01*
X16128500Y-13847119D02*
X16128500Y-13947119D01*
X16078500Y-13897119D02*
X16178500Y-13897119D01*
X16128500Y-14101119D02*
X16128500Y-14201119D01*
X16078500Y-14151119D02*
X16178500Y-14151119D01*
X16382500Y-13847119D02*
X16382500Y-13947119D01*
X16332500Y-13897119D02*
X16432500Y-13897119D01*
X16382500Y-14101119D02*
X16382500Y-14201119D01*
X16332500Y-14151119D02*
X16432500Y-14151119D01*
X16636500Y-13847119D02*
X16636500Y-13947119D01*
X16586500Y-13897119D02*
X16686500Y-13897119D01*
X16636500Y-14101119D02*
X16636500Y-14201119D01*
X16586500Y-14151119D02*
X16686500Y-14151119D01*
X16890500Y-13847119D02*
X16890500Y-13947119D01*
X16840500Y-13897119D02*
X16940500Y-13897119D01*
X16890500Y-14101119D02*
X16890500Y-14201119D01*
X16840500Y-14151119D02*
X16940500Y-14151119D01*
X17144500Y-13847119D02*
X17144500Y-13947119D01*
X17094500Y-13897119D02*
X17194500Y-13897119D01*
X17144500Y-14101119D02*
X17144500Y-14201119D01*
X17094500Y-14151119D02*
X17194500Y-14151119D01*
X17398500Y-13847119D02*
X17398500Y-13947119D01*
X17348500Y-13897119D02*
X17448500Y-13897119D01*
X17398500Y-14101119D02*
X17398500Y-14201119D01*
X17348500Y-14151119D02*
X17448500Y-14151119D01*
X17652500Y-13847119D02*
X17652500Y-13947119D01*
X17602500Y-13897119D02*
X17702500Y-13897119D01*
X17652500Y-14101119D02*
X17652500Y-14201119D01*
X17602500Y-14151119D02*
X17702500Y-14151119D01*
X17906500Y-13847119D02*
X17906500Y-13947119D01*
X17856500Y-13897119D02*
X17956500Y-13897119D01*
X17906500Y-14101119D02*
X17906500Y-14201119D01*
X17856500Y-14151119D02*
X17956500Y-14151119D01*
X18160500Y-13847119D02*
X18160500Y-13947119D01*
X18110500Y-13897119D02*
X18210500Y-13897119D01*
X18160500Y-14101119D02*
X18160500Y-14201119D01*
X18110500Y-14151119D02*
X18210500Y-14151119D01*
X18414500Y-13847119D02*
X18414500Y-13947119D01*
X18364500Y-13897119D02*
X18464500Y-13897119D01*
X18414500Y-14101119D02*
X18414500Y-14201119D01*
X18364500Y-14151119D02*
X18464500Y-14151119D01*
X18668500Y-13847119D02*
X18668500Y-13947119D01*
X18618500Y-13897119D02*
X18718500Y-13897119D01*
X18668500Y-14101119D02*
X18668500Y-14201119D01*
X18618500Y-14151119D02*
X18718500Y-14151119D01*
X18922500Y-13847119D02*
X18922500Y-13947119D01*
X18872500Y-13897119D02*
X18972500Y-13897119D01*
X18922500Y-14101119D02*
X18922500Y-14201119D01*
X18872500Y-14151119D02*
X18972500Y-14151119D01*
D14*
X10913891Y-11963891D02*
X10913891Y-11886109D01*
X10836109Y-11886109D01*
X10836109Y-11963891D01*
X10913891Y-11963891D01*
X10913891Y-12613891D02*
X10913891Y-12536109D01*
X10836109Y-12536109D01*
X10836109Y-12613891D01*
X10913891Y-12613891D01*
X11363891Y-11963891D02*
X11363891Y-11886109D01*
X11286109Y-11886109D01*
X11286109Y-11963891D01*
X11363891Y-11963891D01*
X11363891Y-12613891D02*
X11363891Y-12536109D01*
X11286109Y-12536109D01*
X11286109Y-12613891D01*
X11363891Y-12613891D01*
X11913891Y-10963891D02*
X11913891Y-10886109D01*
X11836109Y-10886109D01*
X11836109Y-10963891D01*
X11913891Y-10963891D01*
X11913891Y-11613891D02*
X11913891Y-11536109D01*
X11836109Y-11536109D01*
X11836109Y-11613891D01*
X11913891Y-11613891D01*
X11913891Y-12963891D02*
X11913891Y-12886109D01*
X11836109Y-12886109D01*
X11836109Y-12963891D01*
X11913891Y-12963891D01*
X11913891Y-13613891D02*
X11913891Y-13536109D01*
X11836109Y-13536109D01*
X11836109Y-13613891D01*
X11913891Y-13613891D01*
X12363891Y-10963891D02*
X12363891Y-10886109D01*
X12286109Y-10886109D01*
X12286109Y-10963891D01*
X12363891Y-10963891D01*
X12363891Y-11613891D02*
X12363891Y-11536109D01*
X12286109Y-11536109D01*
X12286109Y-11613891D01*
X12363891Y-11613891D01*
X12363891Y-12963891D02*
X12363891Y-12886109D01*
X12286109Y-12886109D01*
X12286109Y-12963891D01*
X12363891Y-12963891D01*
X12363891Y-13613891D02*
X12363891Y-13536109D01*
X12286109Y-13536109D01*
X12286109Y-13613891D01*
X12363891Y-13613891D01*
X12913891Y-11963891D02*
X12913891Y-11886109D01*
X12836109Y-11886109D01*
X12836109Y-11963891D01*
X12913891Y-11963891D01*
X12913891Y-12613891D02*
X12913891Y-12536109D01*
X12836109Y-12536109D01*
X12836109Y-12613891D01*
X12913891Y-12613891D01*
X13363891Y-11963891D02*
X13363891Y-11886109D01*
X13286109Y-11886109D01*
X13286109Y-11963891D01*
X13363891Y-11963891D01*
X13363891Y-12613891D02*
X13363891Y-12536109D01*
X13286109Y-12536109D01*
X13286109Y-12613891D01*
X13363891Y-12613891D01*
X14679891Y-10538891D02*
X14679891Y-10461109D01*
X14602109Y-10461109D01*
X14602109Y-10538891D01*
X14679891Y-10538891D01*
X14679891Y-10988891D02*
X14679891Y-10911109D01*
X14602109Y-10911109D01*
X14602109Y-10988891D01*
X14679891Y-10988891D01*
X15329891Y-10538891D02*
X15329891Y-10461109D01*
X15252109Y-10461109D01*
X15252109Y-10538891D01*
X15329891Y-10538891D01*
X15329891Y-10988891D02*
X15329891Y-10911109D01*
X15252109Y-10911109D01*
X15252109Y-10988891D01*
X15329891Y-10988891D01*
X16213891Y-10538891D02*
X16213891Y-10461109D01*
X16136109Y-10461109D01*
X16136109Y-10538891D01*
X16213891Y-10538891D01*
X16213891Y-10988891D02*
X16213891Y-10911109D01*
X16136109Y-10911109D01*
X16136109Y-10988891D01*
X16213891Y-10988891D01*
X16863891Y-10538891D02*
X16863891Y-10461109D01*
X16786109Y-10461109D01*
X16786109Y-10538891D01*
X16863891Y-10538891D01*
X16863891Y-10988891D02*
X16863891Y-10911109D01*
X16786109Y-10911109D01*
X16786109Y-10988891D01*
X16863891Y-10988891D01*
X17747891Y-10538891D02*
X17747891Y-10461109D01*
X17670109Y-10461109D01*
X17670109Y-10538891D01*
X17747891Y-10538891D01*
X17747891Y-10988891D02*
X17747891Y-10911109D01*
X17670109Y-10911109D01*
X17670109Y-10988891D01*
X17747891Y-10988891D01*
X18397891Y-10538891D02*
X18397891Y-10461109D01*
X18320109Y-10461109D01*
X18320109Y-10538891D01*
X18397891Y-10538891D01*
X18397891Y-10988891D02*
X18397891Y-10911109D01*
X18320109Y-10911109D01*
X18320109Y-10988891D01*
X18397891Y-10988891D01*
X19413891Y-11963891D02*
X19413891Y-11886109D01*
X19336109Y-11886109D01*
X19336109Y-11963891D01*
X19413891Y-11963891D01*
X19413891Y-12613891D02*
X19413891Y-12536109D01*
X19336109Y-12536109D01*
X19336109Y-12613891D01*
X19413891Y-12613891D01*
X19863891Y-11963891D02*
X19863891Y-11886109D01*
X19786109Y-11886109D01*
X19786109Y-11963891D01*
X19863891Y-11963891D01*
X19863891Y-12613891D02*
X19863891Y-12536109D01*
X19786109Y-12536109D01*
X19786109Y-12613891D01*
X19863891Y-12613891D01*
X20713891Y-10963891D02*
X20713891Y-10886109D01*
X20636109Y-10886109D01*
X20636109Y-10963891D01*
X20713891Y-10963891D01*
X20713891Y-11613891D02*
X20713891Y-11536109D01*
X20636109Y-11536109D01*
X20636109Y-11613891D01*
X20713891Y-11613891D01*
X20713891Y-12963891D02*
X20713891Y-12886109D01*
X20636109Y-12886109D01*
X20636109Y-12963891D01*
X20713891Y-12963891D01*
X20713891Y-13613891D02*
X20713891Y-13536109D01*
X20636109Y-13536109D01*
X20636109Y-13613891D01*
X20713891Y-13613891D01*
X21163891Y-10963891D02*
X21163891Y-10886109D01*
X21086109Y-10886109D01*
X21086109Y-10963891D01*
X21163891Y-10963891D01*
X21163891Y-11613891D02*
X21163891Y-11536109D01*
X21086109Y-11536109D01*
X21086109Y-11613891D01*
X21163891Y-11613891D01*
X21163891Y-12963891D02*
X21163891Y-12886109D01*
X21086109Y-12886109D01*
X21086109Y-12963891D01*
X21163891Y-12963891D01*
X21163891Y-13613891D02*
X21163891Y-13536109D01*
X21086109Y-13536109D01*
X21086109Y-13613891D01*
X21163891Y-13613891D01*
X22013891Y-11963891D02*
X22013891Y-11886109D01*
X21936109Y-11886109D01*
X21936109Y-11963891D01*
X22013891Y-11963891D01*
X22013891Y-12613891D02*
X22013891Y-12536109D01*
X21936109Y-12536109D01*
X21936109Y-12613891D01*
X22013891Y-12613891D01*
X22463891Y-11963891D02*
X22463891Y-11886109D01*
X22386109Y-11886109D01*
X22386109Y-11963891D01*
X22463891Y-11963891D01*
X22463891Y-12613891D02*
X22463891Y-12536109D01*
X22386109Y-12536109D01*
X22386109Y-12613891D01*
X22463891Y-12613891D01*
D11*
X10252619Y-14815476D02*
X10252619Y-14615476D01*
X10300238Y-14615476D01*
X10328810Y-14625000D01*
X10347857Y-14644048D01*
X10357381Y-14663095D01*
X10366905Y-14701190D01*
X10366905Y-14729762D01*
X10357381Y-14767857D01*
X10347857Y-14786905D01*
X10328810Y-14805952D01*
X10300238Y-14815476D01*
X10252619Y-14815476D01*
X10452619Y-14815476D02*
X10452619Y-14682143D01*
X10452619Y-14720238D02*
X10462143Y-14701190D01*
X10471667Y-14691667D01*
X10490714Y-14682143D01*
X10509762Y-14682143D01*
X10576429Y-14815476D02*
X10576429Y-14682143D01*
X10576429Y-14615476D02*
X10566905Y-14625000D01*
X10576429Y-14634524D01*
X10585952Y-14625000D01*
X10576429Y-14615476D01*
X10576429Y-14634524D01*
X10700238Y-14815476D02*
X10681190Y-14805952D01*
X10671667Y-14786905D01*
X10671667Y-14615476D01*
X10805000Y-14815476D02*
X10785952Y-14805952D01*
X10776429Y-14786905D01*
X10776429Y-14615476D01*
X11033571Y-14815476D02*
X11033571Y-14615476D01*
X11100238Y-14758333D01*
X11166905Y-14615476D01*
X11166905Y-14815476D01*
X11347857Y-14815476D02*
X11347857Y-14710714D01*
X11338333Y-14691667D01*
X11319286Y-14682143D01*
X11281190Y-14682143D01*
X11262143Y-14691667D01*
X11347857Y-14805952D02*
X11328809Y-14815476D01*
X11281190Y-14815476D01*
X11262143Y-14805952D01*
X11252619Y-14786905D01*
X11252619Y-14767857D01*
X11262143Y-14748809D01*
X11281190Y-14739286D01*
X11328809Y-14739286D01*
X11347857Y-14729762D01*
X11443095Y-14682143D02*
X11443095Y-14882143D01*
X11443095Y-14691667D02*
X11462143Y-14682143D01*
X11500238Y-14682143D01*
X11519286Y-14691667D01*
X11528809Y-14701190D01*
X11538333Y-14720238D01*
X11538333Y-14777381D01*
X11528809Y-14796428D01*
X11519286Y-14805952D01*
X11500238Y-14815476D01*
X11462143Y-14815476D01*
X11443095Y-14805952D01*
X11624048Y-14796428D02*
X11633571Y-14805952D01*
X11624048Y-14815476D01*
X11614524Y-14805952D01*
X11624048Y-14796428D01*
X11624048Y-14815476D01*
X11624048Y-14691667D02*
X11633571Y-14701190D01*
X11624048Y-14710714D01*
X11614524Y-14701190D01*
X11624048Y-14691667D01*
X11624048Y-14710714D01*
D12*
X9925000Y-15110000D02*
X9995000Y-15180000D01*
X9995000Y-15110000D02*
X9925000Y-15180000D01*
D11*
X10290714Y-15035476D02*
X10309762Y-15035476D01*
X10328810Y-15045000D01*
X10338333Y-15054524D01*
X10347857Y-15073571D01*
X10357381Y-15111667D01*
X10357381Y-15159286D01*
X10347857Y-15197381D01*
X10338333Y-15216428D01*
X10328810Y-15225952D01*
X10309762Y-15235476D01*
X10290714Y-15235476D01*
X10271667Y-15225952D01*
X10262143Y-15216428D01*
X10252619Y-15197381D01*
X10243095Y-15159286D01*
X10243095Y-15111667D01*
X10252619Y-15073571D01*
X10262143Y-15054524D01*
X10271667Y-15045000D01*
X10290714Y-15035476D01*
X10443095Y-15216428D02*
X10452619Y-15225952D01*
X10443095Y-15235476D01*
X10433571Y-15225952D01*
X10443095Y-15216428D01*
X10443095Y-15235476D01*
X10519286Y-15035476D02*
X10652619Y-15035476D01*
X10566905Y-15235476D01*
X10766905Y-15035476D02*
X10785952Y-15035476D01*
X10805000Y-15045000D01*
X10814524Y-15054524D01*
X10824048Y-15073571D01*
X10833571Y-15111667D01*
X10833571Y-15159286D01*
X10824048Y-15197381D01*
X10814524Y-15216428D01*
X10805000Y-15225952D01*
X10785952Y-15235476D01*
X10766905Y-15235476D01*
X10747857Y-15225952D01*
X10738333Y-15216428D01*
X10728810Y-15197381D01*
X10719286Y-15159286D01*
X10719286Y-15111667D01*
X10728810Y-15073571D01*
X10738333Y-15054524D01*
X10747857Y-15045000D01*
X10766905Y-15035476D01*
X10957381Y-15035476D02*
X10976429Y-15035476D01*
X10995476Y-15045000D01*
X11005000Y-15054524D01*
X11014524Y-15073571D01*
X11024048Y-15111667D01*
X11024048Y-15159286D01*
X11014524Y-15197381D01*
X11005000Y-15216428D01*
X10995476Y-15225952D01*
X10976429Y-15235476D01*
X10957381Y-15235476D01*
X10938333Y-15225952D01*
X10928810Y-15216428D01*
X10919286Y-15197381D01*
X10909762Y-15159286D01*
X10909762Y-15111667D01*
X10919286Y-15073571D01*
X10928810Y-15054524D01*
X10938333Y-15045000D01*
X10957381Y-15035476D01*
X11109762Y-15235476D02*
X11109762Y-15102143D01*
X11109762Y-15121190D02*
X11119286Y-15111667D01*
X11138333Y-15102143D01*
X11166905Y-15102143D01*
X11185952Y-15111667D01*
X11195476Y-15130714D01*
X11195476Y-15235476D01*
X11195476Y-15130714D02*
X11205000Y-15111667D01*
X11224048Y-15102143D01*
X11252619Y-15102143D01*
X11271667Y-15111667D01*
X11281190Y-15130714D01*
X11281190Y-15235476D01*
X11376428Y-15235476D02*
X11376428Y-15102143D01*
X11376428Y-15121190D02*
X11385952Y-15111667D01*
X11405000Y-15102143D01*
X11433571Y-15102143D01*
X11452619Y-15111667D01*
X11462143Y-15130714D01*
X11462143Y-15235476D01*
X11462143Y-15130714D02*
X11471667Y-15111667D01*
X11490714Y-15102143D01*
X11519286Y-15102143D01*
X11538333Y-15111667D01*
X11547857Y-15130714D01*
X11547857Y-15235476D01*
X11938333Y-15025952D02*
X11766905Y-15283095D01*
X12195476Y-15035476D02*
X12214524Y-15035476D01*
X12233571Y-15045000D01*
X12243095Y-15054524D01*
X12252619Y-15073571D01*
X12262143Y-15111667D01*
X12262143Y-15159286D01*
X12252619Y-15197381D01*
X12243095Y-15216428D01*
X12233571Y-15225952D01*
X12214524Y-15235476D01*
X12195476Y-15235476D01*
X12176428Y-15225952D01*
X12166905Y-15216428D01*
X12157381Y-15197381D01*
X12147857Y-15159286D01*
X12147857Y-15111667D01*
X12157381Y-15073571D01*
X12166905Y-15054524D01*
X12176428Y-15045000D01*
X12195476Y-15035476D01*
X12347857Y-15216428D02*
X12357381Y-15225952D01*
X12347857Y-15235476D01*
X12338333Y-15225952D01*
X12347857Y-15216428D01*
X12347857Y-15235476D01*
X12481190Y-15035476D02*
X12500238Y-15035476D01*
X12519286Y-15045000D01*
X12528809Y-15054524D01*
X12538333Y-15073571D01*
X12547857Y-15111667D01*
X12547857Y-15159286D01*
X12538333Y-15197381D01*
X12528809Y-15216428D01*
X12519286Y-15225952D01*
X12500238Y-15235476D01*
X12481190Y-15235476D01*
X12462143Y-15225952D01*
X12452619Y-15216428D01*
X12443095Y-15197381D01*
X12433571Y-15159286D01*
X12433571Y-15111667D01*
X12443095Y-15073571D01*
X12452619Y-15054524D01*
X12462143Y-15045000D01*
X12481190Y-15035476D01*
X12624048Y-15054524D02*
X12633571Y-15045000D01*
X12652619Y-15035476D01*
X12700238Y-15035476D01*
X12719286Y-15045000D01*
X12728809Y-15054524D01*
X12738333Y-15073571D01*
X12738333Y-15092619D01*
X12728809Y-15121190D01*
X12614524Y-15235476D01*
X12738333Y-15235476D01*
X12805000Y-15035476D02*
X12938333Y-15035476D01*
X12852619Y-15235476D01*
X13100238Y-15035476D02*
X13062143Y-15035476D01*
X13043095Y-15045000D01*
X13033571Y-15054524D01*
X13014524Y-15083095D01*
X13005000Y-15121190D01*
X13005000Y-15197381D01*
X13014524Y-15216428D01*
X13024048Y-15225952D01*
X13043095Y-15235476D01*
X13081190Y-15235476D01*
X13100238Y-15225952D01*
X13109762Y-15216428D01*
X13119286Y-15197381D01*
X13119286Y-15149762D01*
X13109762Y-15130714D01*
X13100238Y-15121190D01*
X13081190Y-15111667D01*
X13043095Y-15111667D01*
X13024048Y-15121190D01*
X13014524Y-15130714D01*
X13005000Y-15149762D01*
X13195476Y-15035476D02*
X13195476Y-15073571D01*
X13271667Y-15035476D02*
X13271667Y-15073571D01*
X13566905Y-15311667D02*
X13557381Y-15302143D01*
X13538333Y-15273571D01*
X13528809Y-15254524D01*
X13519286Y-15225952D01*
X13509762Y-15178333D01*
X13509762Y-15140238D01*
X13519286Y-15092619D01*
X13528809Y-15064048D01*
X13538333Y-15045000D01*
X13557381Y-15016428D01*
X13566905Y-15006905D01*
X13747857Y-15235476D02*
X13633571Y-15235476D01*
X13690714Y-15235476D02*
X13690714Y-15035476D01*
X13671667Y-15064048D01*
X13652619Y-15083095D01*
X13633571Y-15092619D01*
X13871667Y-15035476D02*
X13890714Y-15035476D01*
X13909762Y-15045000D01*
X13919286Y-15054524D01*
X13928809Y-15073571D01*
X13938333Y-15111667D01*
X13938333Y-15159286D01*
X13928809Y-15197381D01*
X13919286Y-15216428D01*
X13909762Y-15225952D01*
X13890714Y-15235476D01*
X13871667Y-15235476D01*
X13852619Y-15225952D01*
X13843095Y-15216428D01*
X13833571Y-15197381D01*
X13824048Y-15159286D01*
X13824048Y-15111667D01*
X13833571Y-15073571D01*
X13843095Y-15054524D01*
X13852619Y-15045000D01*
X13871667Y-15035476D01*
X14176428Y-15235476D02*
X14176428Y-15035476D01*
X14262143Y-15235476D02*
X14262143Y-15130714D01*
X14252619Y-15111667D01*
X14233571Y-15102143D01*
X14205000Y-15102143D01*
X14185952Y-15111667D01*
X14176428Y-15121190D01*
X14385952Y-15235476D02*
X14366905Y-15225952D01*
X14357381Y-15216428D01*
X14347857Y-15197381D01*
X14347857Y-15140238D01*
X14357381Y-15121190D01*
X14366905Y-15111667D01*
X14385952Y-15102143D01*
X14414524Y-15102143D01*
X14433571Y-15111667D01*
X14443095Y-15121190D01*
X14452619Y-15140238D01*
X14452619Y-15197381D01*
X14443095Y-15216428D01*
X14433571Y-15225952D01*
X14414524Y-15235476D01*
X14385952Y-15235476D01*
X14566905Y-15235476D02*
X14547857Y-15225952D01*
X14538333Y-15206905D01*
X14538333Y-15035476D01*
X14719286Y-15225952D02*
X14700238Y-15235476D01*
X14662143Y-15235476D01*
X14643095Y-15225952D01*
X14633571Y-15206905D01*
X14633571Y-15130714D01*
X14643095Y-15111667D01*
X14662143Y-15102143D01*
X14700238Y-15102143D01*
X14719286Y-15111667D01*
X14728809Y-15130714D01*
X14728809Y-15149762D01*
X14633571Y-15168809D01*
X14805000Y-15225952D02*
X14824048Y-15235476D01*
X14862143Y-15235476D01*
X14881190Y-15225952D01*
X14890714Y-15206905D01*
X14890714Y-15197381D01*
X14881190Y-15178333D01*
X14862143Y-15168809D01*
X14833571Y-15168809D01*
X14814524Y-15159286D01*
X14805000Y-15140238D01*
X14805000Y-15130714D01*
X14814524Y-15111667D01*
X14833571Y-15102143D01*
X14862143Y-15102143D01*
X14881190Y-15111667D01*
X14957381Y-15311667D02*
X14966905Y-15302143D01*
X14985952Y-15273571D01*
X14995476Y-15254524D01*
X15005000Y-15225952D01*
X15014524Y-15178333D01*
X15014524Y-15140238D01*
X15005000Y-15092619D01*
X14995476Y-15064048D01*
X14985952Y-15045000D01*
X14966905Y-15016428D01*
X14957381Y-15006905D01*
D13*
X9995000Y-15409000D02*
G75*
G03*
X9995000Y-15409000I-45000J0D01*
G01*
D11*
X10290714Y-15299476D02*
X10309762Y-15299476D01*
X10328810Y-15309000D01*
X10338333Y-15318524D01*
X10347857Y-15337571D01*
X10357381Y-15375667D01*
X10357381Y-15423286D01*
X10347857Y-15461381D01*
X10338333Y-15480428D01*
X10328810Y-15489952D01*
X10309762Y-15499476D01*
X10290714Y-15499476D01*
X10271667Y-15489952D01*
X10262143Y-15480428D01*
X10252619Y-15461381D01*
X10243095Y-15423286D01*
X10243095Y-15375667D01*
X10252619Y-15337571D01*
X10262143Y-15318524D01*
X10271667Y-15309000D01*
X10290714Y-15299476D01*
X10443095Y-15480428D02*
X10452619Y-15489952D01*
X10443095Y-15499476D01*
X10433571Y-15489952D01*
X10443095Y-15480428D01*
X10443095Y-15499476D01*
X10547857Y-15499476D02*
X10585952Y-15499476D01*
X10605000Y-15489952D01*
X10614524Y-15480428D01*
X10633571Y-15451857D01*
X10643095Y-15413762D01*
X10643095Y-15337571D01*
X10633571Y-15318524D01*
X10624048Y-15309000D01*
X10605000Y-15299476D01*
X10566905Y-15299476D01*
X10547857Y-15309000D01*
X10538333Y-15318524D01*
X10528810Y-15337571D01*
X10528810Y-15385190D01*
X10538333Y-15404238D01*
X10547857Y-15413762D01*
X10566905Y-15423286D01*
X10605000Y-15423286D01*
X10624048Y-15413762D01*
X10633571Y-15404238D01*
X10643095Y-15385190D01*
X10766905Y-15299476D02*
X10785952Y-15299476D01*
X10805000Y-15309000D01*
X10814524Y-15318524D01*
X10824048Y-15337571D01*
X10833571Y-15375667D01*
X10833571Y-15423286D01*
X10824048Y-15461381D01*
X10814524Y-15480428D01*
X10805000Y-15489952D01*
X10785952Y-15499476D01*
X10766905Y-15499476D01*
X10747857Y-15489952D01*
X10738333Y-15480428D01*
X10728810Y-15461381D01*
X10719286Y-15423286D01*
X10719286Y-15375667D01*
X10728810Y-15337571D01*
X10738333Y-15318524D01*
X10747857Y-15309000D01*
X10766905Y-15299476D01*
X10957381Y-15299476D02*
X10976429Y-15299476D01*
X10995476Y-15309000D01*
X11005000Y-15318524D01*
X11014524Y-15337571D01*
X11024048Y-15375667D01*
X11024048Y-15423286D01*
X11014524Y-15461381D01*
X11005000Y-15480428D01*
X10995476Y-15489952D01*
X10976429Y-15499476D01*
X10957381Y-15499476D01*
X10938333Y-15489952D01*
X10928810Y-15480428D01*
X10919286Y-15461381D01*
X10909762Y-15423286D01*
X10909762Y-15375667D01*
X10919286Y-15337571D01*
X10928810Y-15318524D01*
X10938333Y-15309000D01*
X10957381Y-15299476D01*
X11109762Y-15499476D02*
X11109762Y-15366143D01*
X11109762Y-15385190D02*
X11119286Y-15375667D01*
X11138333Y-15366143D01*
X11166905Y-15366143D01*
X11185952Y-15375667D01*
X11195476Y-15394714D01*
X11195476Y-15499476D01*
X11195476Y-15394714D02*
X11205000Y-15375667D01*
X11224048Y-15366143D01*
X11252619Y-15366143D01*
X11271667Y-15375667D01*
X11281190Y-15394714D01*
X11281190Y-15499476D01*
X11376428Y-15499476D02*
X11376428Y-15366143D01*
X11376428Y-15385190D02*
X11385952Y-15375667D01*
X11405000Y-15366143D01*
X11433571Y-15366143D01*
X11452619Y-15375667D01*
X11462143Y-15394714D01*
X11462143Y-15499476D01*
X11462143Y-15394714D02*
X11471667Y-15375667D01*
X11490714Y-15366143D01*
X11519286Y-15366143D01*
X11538333Y-15375667D01*
X11547857Y-15394714D01*
X11547857Y-15499476D01*
X11938333Y-15289952D02*
X11766905Y-15547095D01*
X12195476Y-15299476D02*
X12214524Y-15299476D01*
X12233571Y-15309000D01*
X12243095Y-15318524D01*
X12252619Y-15337571D01*
X12262143Y-15375667D01*
X12262143Y-15423286D01*
X12252619Y-15461381D01*
X12243095Y-15480428D01*
X12233571Y-15489952D01*
X12214524Y-15499476D01*
X12195476Y-15499476D01*
X12176428Y-15489952D01*
X12166905Y-15480428D01*
X12157381Y-15461381D01*
X12147857Y-15423286D01*
X12147857Y-15375667D01*
X12157381Y-15337571D01*
X12166905Y-15318524D01*
X12176428Y-15309000D01*
X12195476Y-15299476D01*
X12347857Y-15480428D02*
X12357381Y-15489952D01*
X12347857Y-15499476D01*
X12338333Y-15489952D01*
X12347857Y-15480428D01*
X12347857Y-15499476D01*
X12481190Y-15299476D02*
X12500238Y-15299476D01*
X12519286Y-15309000D01*
X12528809Y-15318524D01*
X12538333Y-15337571D01*
X12547857Y-15375667D01*
X12547857Y-15423286D01*
X12538333Y-15461381D01*
X12528809Y-15480428D01*
X12519286Y-15489952D01*
X12500238Y-15499476D01*
X12481190Y-15499476D01*
X12462143Y-15489952D01*
X12452619Y-15480428D01*
X12443095Y-15461381D01*
X12433571Y-15423286D01*
X12433571Y-15375667D01*
X12443095Y-15337571D01*
X12452619Y-15318524D01*
X12462143Y-15309000D01*
X12481190Y-15299476D01*
X12614524Y-15299476D02*
X12738333Y-15299476D01*
X12671667Y-15375667D01*
X12700238Y-15375667D01*
X12719286Y-15385190D01*
X12728809Y-15394714D01*
X12738333Y-15413762D01*
X12738333Y-15461381D01*
X12728809Y-15480428D01*
X12719286Y-15489952D01*
X12700238Y-15499476D01*
X12643095Y-15499476D01*
X12624048Y-15489952D01*
X12614524Y-15480428D01*
X12919286Y-15299476D02*
X12824048Y-15299476D01*
X12814524Y-15394714D01*
X12824048Y-15385190D01*
X12843095Y-15375667D01*
X12890714Y-15375667D01*
X12909762Y-15385190D01*
X12919286Y-15394714D01*
X12928809Y-15413762D01*
X12928809Y-15461381D01*
X12919286Y-15480428D01*
X12909762Y-15489952D01*
X12890714Y-15499476D01*
X12843095Y-15499476D01*
X12824048Y-15489952D01*
X12814524Y-15480428D01*
X13100238Y-15366143D02*
X13100238Y-15499476D01*
X13052619Y-15289952D02*
X13005000Y-15432809D01*
X13128809Y-15432809D01*
X13195476Y-15299476D02*
X13195476Y-15337571D01*
X13271667Y-15299476D02*
X13271667Y-15337571D01*
X13566905Y-15575667D02*
X13557381Y-15566143D01*
X13538333Y-15537571D01*
X13528809Y-15518524D01*
X13519286Y-15489952D01*
X13509762Y-15442333D01*
X13509762Y-15404238D01*
X13519286Y-15356619D01*
X13528809Y-15328048D01*
X13538333Y-15309000D01*
X13557381Y-15280428D01*
X13566905Y-15270905D01*
X13747857Y-15499476D02*
X13633571Y-15499476D01*
X13690714Y-15499476D02*
X13690714Y-15299476D01*
X13671667Y-15328048D01*
X13652619Y-15347095D01*
X13633571Y-15356619D01*
X13871667Y-15299476D02*
X13890714Y-15299476D01*
X13909762Y-15309000D01*
X13919286Y-15318524D01*
X13928809Y-15337571D01*
X13938333Y-15375667D01*
X13938333Y-15423286D01*
X13928809Y-15461381D01*
X13919286Y-15480428D01*
X13909762Y-15489952D01*
X13890714Y-15499476D01*
X13871667Y-15499476D01*
X13852619Y-15489952D01*
X13843095Y-15480428D01*
X13833571Y-15461381D01*
X13824048Y-15423286D01*
X13824048Y-15375667D01*
X13833571Y-15337571D01*
X13843095Y-15318524D01*
X13852619Y-15309000D01*
X13871667Y-15299476D01*
X14176428Y-15499476D02*
X14176428Y-15299476D01*
X14262143Y-15499476D02*
X14262143Y-15394714D01*
X14252619Y-15375667D01*
X14233571Y-15366143D01*
X14205000Y-15366143D01*
X14185952Y-15375667D01*
X14176428Y-15385190D01*
X14385952Y-15499476D02*
X14366905Y-15489952D01*
X14357381Y-15480428D01*
X14347857Y-15461381D01*
X14347857Y-15404238D01*
X14357381Y-15385190D01*
X14366905Y-15375667D01*
X14385952Y-15366143D01*
X14414524Y-15366143D01*
X14433571Y-15375667D01*
X14443095Y-15385190D01*
X14452619Y-15404238D01*
X14452619Y-15461381D01*
X14443095Y-15480428D01*
X14433571Y-15489952D01*
X14414524Y-15499476D01*
X14385952Y-15499476D01*
X14566905Y-15499476D02*
X14547857Y-15489952D01*
X14538333Y-15470905D01*
X14538333Y-15299476D01*
X14719286Y-15489952D02*
X14700238Y-15499476D01*
X14662143Y-15499476D01*
X14643095Y-15489952D01*
X14633571Y-15470905D01*
X14633571Y-15394714D01*
X14643095Y-15375667D01*
X14662143Y-15366143D01*
X14700238Y-15366143D01*
X14719286Y-15375667D01*
X14728809Y-15394714D01*
X14728809Y-15413762D01*
X14633571Y-15432809D01*
X14805000Y-15489952D02*
X14824048Y-15499476D01*
X14862143Y-15499476D01*
X14881190Y-15489952D01*
X14890714Y-15470905D01*
X14890714Y-15461381D01*
X14881190Y-15442333D01*
X14862143Y-15432809D01*
X14833571Y-15432809D01*
X14814524Y-15423286D01*
X14805000Y-15404238D01*
X14805000Y-15394714D01*
X14814524Y-15375667D01*
X14833571Y-15366143D01*
X14862143Y-15366143D01*
X14881190Y-15375667D01*
X14957381Y-15575667D02*
X14966905Y-15566143D01*
X14985952Y-15537571D01*
X14995476Y-15518524D01*
X15005000Y-15489952D01*
X15014524Y-15442333D01*
X15014524Y-15404238D01*
X15005000Y-15356619D01*
X14995476Y-15328048D01*
X14985952Y-15309000D01*
X14966905Y-15280428D01*
X14957381Y-15270905D01*
D10*
X9945000Y-15623000D02*
X9945000Y-15723000D01*
X9895000Y-15673000D02*
X9995000Y-15673000D01*
D11*
X10357381Y-15763476D02*
X10243095Y-15763476D01*
X10300238Y-15763476D02*
X10300238Y-15563476D01*
X10281190Y-15592048D01*
X10262143Y-15611095D01*
X10243095Y-15620619D01*
X10443095Y-15744428D02*
X10452619Y-15753952D01*
X10443095Y-15763476D01*
X10433571Y-15753952D01*
X10443095Y-15744428D01*
X10443095Y-15763476D01*
X10576429Y-15563476D02*
X10595476Y-15563476D01*
X10614524Y-15573000D01*
X10624048Y-15582524D01*
X10633571Y-15601571D01*
X10643095Y-15639667D01*
X10643095Y-15687286D01*
X10633571Y-15725381D01*
X10624048Y-15744428D01*
X10614524Y-15753952D01*
X10595476Y-15763476D01*
X10576429Y-15763476D01*
X10557381Y-15753952D01*
X10547857Y-15744428D01*
X10538333Y-15725381D01*
X10528810Y-15687286D01*
X10528810Y-15639667D01*
X10538333Y-15601571D01*
X10547857Y-15582524D01*
X10557381Y-15573000D01*
X10576429Y-15563476D01*
X10766905Y-15563476D02*
X10785952Y-15563476D01*
X10805000Y-15573000D01*
X10814524Y-15582524D01*
X10824048Y-15601571D01*
X10833571Y-15639667D01*
X10833571Y-15687286D01*
X10824048Y-15725381D01*
X10814524Y-15744428D01*
X10805000Y-15753952D01*
X10785952Y-15763476D01*
X10766905Y-15763476D01*
X10747857Y-15753952D01*
X10738333Y-15744428D01*
X10728810Y-15725381D01*
X10719286Y-15687286D01*
X10719286Y-15639667D01*
X10728810Y-15601571D01*
X10738333Y-15582524D01*
X10747857Y-15573000D01*
X10766905Y-15563476D01*
X10957381Y-15563476D02*
X10976429Y-15563476D01*
X10995476Y-15573000D01*
X11005000Y-15582524D01*
X11014524Y-15601571D01*
X11024048Y-15639667D01*
X11024048Y-15687286D01*
X11014524Y-15725381D01*
X11005000Y-15744428D01*
X10995476Y-15753952D01*
X10976429Y-15763476D01*
X10957381Y-15763476D01*
X10938333Y-15753952D01*
X10928810Y-15744428D01*
X10919286Y-15725381D01*
X10909762Y-15687286D01*
X10909762Y-15639667D01*
X10919286Y-15601571D01*
X10928810Y-15582524D01*
X10938333Y-15573000D01*
X10957381Y-15563476D01*
X11109762Y-15763476D02*
X11109762Y-15630143D01*
X11109762Y-15649190D02*
X11119286Y-15639667D01*
X11138333Y-15630143D01*
X11166905Y-15630143D01*
X11185952Y-15639667D01*
X11195476Y-15658714D01*
X11195476Y-15763476D01*
X11195476Y-15658714D02*
X11205000Y-15639667D01*
X11224048Y-15630143D01*
X11252619Y-15630143D01*
X11271667Y-15639667D01*
X11281190Y-15658714D01*
X11281190Y-15763476D01*
X11376428Y-15763476D02*
X11376428Y-15630143D01*
X11376428Y-15649190D02*
X11385952Y-15639667D01*
X11405000Y-15630143D01*
X11433571Y-15630143D01*
X11452619Y-15639667D01*
X11462143Y-15658714D01*
X11462143Y-15763476D01*
X11462143Y-15658714D02*
X11471667Y-15639667D01*
X11490714Y-15630143D01*
X11519286Y-15630143D01*
X11538333Y-15639667D01*
X11547857Y-15658714D01*
X11547857Y-15763476D01*
X11938333Y-15553952D02*
X11766905Y-15811095D01*
X12195476Y-15563476D02*
X12214524Y-15563476D01*
X12233571Y-15573000D01*
X12243095Y-15582524D01*
X12252619Y-15601571D01*
X12262143Y-15639667D01*
X12262143Y-15687286D01*
X12252619Y-15725381D01*
X12243095Y-15744428D01*
X12233571Y-15753952D01*
X12214524Y-15763476D01*
X12195476Y-15763476D01*
X12176428Y-15753952D01*
X12166905Y-15744428D01*
X12157381Y-15725381D01*
X12147857Y-15687286D01*
X12147857Y-15639667D01*
X12157381Y-15601571D01*
X12166905Y-15582524D01*
X12176428Y-15573000D01*
X12195476Y-15563476D01*
X12347857Y-15744428D02*
X12357381Y-15753952D01*
X12347857Y-15763476D01*
X12338333Y-15753952D01*
X12347857Y-15744428D01*
X12347857Y-15763476D01*
X12481190Y-15563476D02*
X12500238Y-15563476D01*
X12519286Y-15573000D01*
X12528809Y-15582524D01*
X12538333Y-15601571D01*
X12547857Y-15639667D01*
X12547857Y-15687286D01*
X12538333Y-15725381D01*
X12528809Y-15744428D01*
X12519286Y-15753952D01*
X12500238Y-15763476D01*
X12481190Y-15763476D01*
X12462143Y-15753952D01*
X12452619Y-15744428D01*
X12443095Y-15725381D01*
X12433571Y-15687286D01*
X12433571Y-15639667D01*
X12443095Y-15601571D01*
X12452619Y-15582524D01*
X12462143Y-15573000D01*
X12481190Y-15563476D01*
X12614524Y-15563476D02*
X12738333Y-15563476D01*
X12671667Y-15639667D01*
X12700238Y-15639667D01*
X12719286Y-15649190D01*
X12728809Y-15658714D01*
X12738333Y-15677762D01*
X12738333Y-15725381D01*
X12728809Y-15744428D01*
X12719286Y-15753952D01*
X12700238Y-15763476D01*
X12643095Y-15763476D01*
X12624048Y-15753952D01*
X12614524Y-15744428D01*
X12833571Y-15763476D02*
X12871667Y-15763476D01*
X12890714Y-15753952D01*
X12900238Y-15744428D01*
X12919286Y-15715857D01*
X12928809Y-15677762D01*
X12928809Y-15601571D01*
X12919286Y-15582524D01*
X12909762Y-15573000D01*
X12890714Y-15563476D01*
X12852619Y-15563476D01*
X12833571Y-15573000D01*
X12824048Y-15582524D01*
X12814524Y-15601571D01*
X12814524Y-15649190D01*
X12824048Y-15668238D01*
X12833571Y-15677762D01*
X12852619Y-15687286D01*
X12890714Y-15687286D01*
X12909762Y-15677762D01*
X12919286Y-15668238D01*
X12928809Y-15649190D01*
X13100238Y-15630143D02*
X13100238Y-15763476D01*
X13052619Y-15553952D02*
X13005000Y-15696809D01*
X13128809Y-15696809D01*
X13195476Y-15563476D02*
X13195476Y-15601571D01*
X13271667Y-15563476D02*
X13271667Y-15601571D01*
X13566905Y-15839667D02*
X13557381Y-15830143D01*
X13538333Y-15801571D01*
X13528809Y-15782524D01*
X13519286Y-15753952D01*
X13509762Y-15706333D01*
X13509762Y-15668238D01*
X13519286Y-15620619D01*
X13528809Y-15592048D01*
X13538333Y-15573000D01*
X13557381Y-15544428D01*
X13566905Y-15534905D01*
X13728809Y-15630143D02*
X13728809Y-15763476D01*
X13681190Y-15553952D02*
X13633571Y-15696809D01*
X13757381Y-15696809D01*
X13871667Y-15563476D02*
X13890714Y-15563476D01*
X13909762Y-15573000D01*
X13919286Y-15582524D01*
X13928809Y-15601571D01*
X13938333Y-15639667D01*
X13938333Y-15687286D01*
X13928809Y-15725381D01*
X13919286Y-15744428D01*
X13909762Y-15753952D01*
X13890714Y-15763476D01*
X13871667Y-15763476D01*
X13852619Y-15753952D01*
X13843095Y-15744428D01*
X13833571Y-15725381D01*
X13824048Y-15687286D01*
X13824048Y-15639667D01*
X13833571Y-15601571D01*
X13843095Y-15582524D01*
X13852619Y-15573000D01*
X13871667Y-15563476D01*
X14176428Y-15763476D02*
X14176428Y-15563476D01*
X14262143Y-15763476D02*
X14262143Y-15658714D01*
X14252619Y-15639667D01*
X14233571Y-15630143D01*
X14205000Y-15630143D01*
X14185952Y-15639667D01*
X14176428Y-15649190D01*
X14385952Y-15763476D02*
X14366905Y-15753952D01*
X14357381Y-15744428D01*
X14347857Y-15725381D01*
X14347857Y-15668238D01*
X14357381Y-15649190D01*
X14366905Y-15639667D01*
X14385952Y-15630143D01*
X14414524Y-15630143D01*
X14433571Y-15639667D01*
X14443095Y-15649190D01*
X14452619Y-15668238D01*
X14452619Y-15725381D01*
X14443095Y-15744428D01*
X14433571Y-15753952D01*
X14414524Y-15763476D01*
X14385952Y-15763476D01*
X14566905Y-15763476D02*
X14547857Y-15753952D01*
X14538333Y-15734905D01*
X14538333Y-15563476D01*
X14719286Y-15753952D02*
X14700238Y-15763476D01*
X14662143Y-15763476D01*
X14643095Y-15753952D01*
X14633571Y-15734905D01*
X14633571Y-15658714D01*
X14643095Y-15639667D01*
X14662143Y-15630143D01*
X14700238Y-15630143D01*
X14719286Y-15639667D01*
X14728809Y-15658714D01*
X14728809Y-15677762D01*
X14633571Y-15696809D01*
X14805000Y-15753952D02*
X14824048Y-15763476D01*
X14862143Y-15763476D01*
X14881190Y-15753952D01*
X14890714Y-15734905D01*
X14890714Y-15725381D01*
X14881190Y-15706333D01*
X14862143Y-15696809D01*
X14833571Y-15696809D01*
X14814524Y-15687286D01*
X14805000Y-15668238D01*
X14805000Y-15658714D01*
X14814524Y-15639667D01*
X14833571Y-15630143D01*
X14862143Y-15630143D01*
X14881190Y-15639667D01*
X14957381Y-15839667D02*
X14966905Y-15830143D01*
X14985952Y-15801571D01*
X14995476Y-15782524D01*
X15005000Y-15753952D01*
X15014524Y-15706333D01*
X15014524Y-15668238D01*
X15005000Y-15620619D01*
X14995476Y-15592048D01*
X14985952Y-15573000D01*
X14966905Y-15544428D01*
X14957381Y-15534905D01*
D14*
X9978891Y-15975891D02*
X9978891Y-15898109D01*
X9901109Y-15898109D01*
X9901109Y-15975891D01*
X9978891Y-15975891D01*
D11*
X10357381Y-16027476D02*
X10243095Y-16027476D01*
X10300238Y-16027476D02*
X10300238Y-15827476D01*
X10281190Y-15856048D01*
X10262143Y-15875095D01*
X10243095Y-15884619D01*
X10443095Y-16008428D02*
X10452619Y-16017952D01*
X10443095Y-16027476D01*
X10433571Y-16017952D01*
X10443095Y-16008428D01*
X10443095Y-16027476D01*
X10643095Y-16027476D02*
X10528810Y-16027476D01*
X10585952Y-16027476D02*
X10585952Y-15827476D01*
X10566905Y-15856048D01*
X10547857Y-15875095D01*
X10528810Y-15884619D01*
X10766905Y-15827476D02*
X10785952Y-15827476D01*
X10805000Y-15837000D01*
X10814524Y-15846524D01*
X10824048Y-15865571D01*
X10833571Y-15903667D01*
X10833571Y-15951286D01*
X10824048Y-15989381D01*
X10814524Y-16008428D01*
X10805000Y-16017952D01*
X10785952Y-16027476D01*
X10766905Y-16027476D01*
X10747857Y-16017952D01*
X10738333Y-16008428D01*
X10728810Y-15989381D01*
X10719286Y-15951286D01*
X10719286Y-15903667D01*
X10728810Y-15865571D01*
X10738333Y-15846524D01*
X10747857Y-15837000D01*
X10766905Y-15827476D01*
X10957381Y-15827476D02*
X10976429Y-15827476D01*
X10995476Y-15837000D01*
X11005000Y-15846524D01*
X11014524Y-15865571D01*
X11024048Y-15903667D01*
X11024048Y-15951286D01*
X11014524Y-15989381D01*
X11005000Y-16008428D01*
X10995476Y-16017952D01*
X10976429Y-16027476D01*
X10957381Y-16027476D01*
X10938333Y-16017952D01*
X10928810Y-16008428D01*
X10919286Y-15989381D01*
X10909762Y-15951286D01*
X10909762Y-15903667D01*
X10919286Y-15865571D01*
X10928810Y-15846524D01*
X10938333Y-15837000D01*
X10957381Y-15827476D01*
X11109762Y-16027476D02*
X11109762Y-15894143D01*
X11109762Y-15913190D02*
X11119286Y-15903667D01*
X11138333Y-15894143D01*
X11166905Y-15894143D01*
X11185952Y-15903667D01*
X11195476Y-15922714D01*
X11195476Y-16027476D01*
X11195476Y-15922714D02*
X11205000Y-15903667D01*
X11224048Y-15894143D01*
X11252619Y-15894143D01*
X11271667Y-15903667D01*
X11281190Y-15922714D01*
X11281190Y-16027476D01*
X11376428Y-16027476D02*
X11376428Y-15894143D01*
X11376428Y-15913190D02*
X11385952Y-15903667D01*
X11405000Y-15894143D01*
X11433571Y-15894143D01*
X11452619Y-15903667D01*
X11462143Y-15922714D01*
X11462143Y-16027476D01*
X11462143Y-15922714D02*
X11471667Y-15903667D01*
X11490714Y-15894143D01*
X11519286Y-15894143D01*
X11538333Y-15903667D01*
X11547857Y-15922714D01*
X11547857Y-16027476D01*
X11938333Y-15817952D02*
X11766905Y-16075095D01*
X12195476Y-15827476D02*
X12214524Y-15827476D01*
X12233571Y-15837000D01*
X12243095Y-15846524D01*
X12252619Y-15865571D01*
X12262143Y-15903667D01*
X12262143Y-15951286D01*
X12252619Y-15989381D01*
X12243095Y-16008428D01*
X12233571Y-16017952D01*
X12214524Y-16027476D01*
X12195476Y-16027476D01*
X12176428Y-16017952D01*
X12166905Y-16008428D01*
X12157381Y-15989381D01*
X12147857Y-15951286D01*
X12147857Y-15903667D01*
X12157381Y-15865571D01*
X12166905Y-15846524D01*
X12176428Y-15837000D01*
X12195476Y-15827476D01*
X12347857Y-16008428D02*
X12357381Y-16017952D01*
X12347857Y-16027476D01*
X12338333Y-16017952D01*
X12347857Y-16008428D01*
X12347857Y-16027476D01*
X12481190Y-15827476D02*
X12500238Y-15827476D01*
X12519286Y-15837000D01*
X12528809Y-15846524D01*
X12538333Y-15865571D01*
X12547857Y-15903667D01*
X12547857Y-15951286D01*
X12538333Y-15989381D01*
X12528809Y-16008428D01*
X12519286Y-16017952D01*
X12500238Y-16027476D01*
X12481190Y-16027476D01*
X12462143Y-16017952D01*
X12452619Y-16008428D01*
X12443095Y-15989381D01*
X12433571Y-15951286D01*
X12433571Y-15903667D01*
X12443095Y-15865571D01*
X12452619Y-15846524D01*
X12462143Y-15837000D01*
X12481190Y-15827476D01*
X12719286Y-15894143D02*
X12719286Y-16027476D01*
X12671667Y-15817952D02*
X12624048Y-15960809D01*
X12747857Y-15960809D01*
X12805000Y-15827476D02*
X12928809Y-15827476D01*
X12862143Y-15903667D01*
X12890714Y-15903667D01*
X12909762Y-15913190D01*
X12919286Y-15922714D01*
X12928809Y-15941762D01*
X12928809Y-15989381D01*
X12919286Y-16008428D01*
X12909762Y-16017952D01*
X12890714Y-16027476D01*
X12833571Y-16027476D01*
X12814524Y-16017952D01*
X12805000Y-16008428D01*
X12995476Y-15827476D02*
X13119286Y-15827476D01*
X13052619Y-15903667D01*
X13081190Y-15903667D01*
X13100238Y-15913190D01*
X13109762Y-15922714D01*
X13119286Y-15941762D01*
X13119286Y-15989381D01*
X13109762Y-16008428D01*
X13100238Y-16017952D01*
X13081190Y-16027476D01*
X13024048Y-16027476D01*
X13005000Y-16017952D01*
X12995476Y-16008428D01*
X13195476Y-15827476D02*
X13195476Y-15865571D01*
X13271667Y-15827476D02*
X13271667Y-15865571D01*
X13566905Y-16103667D02*
X13557381Y-16094143D01*
X13538333Y-16065571D01*
X13528809Y-16046524D01*
X13519286Y-16017952D01*
X13509762Y-15970333D01*
X13509762Y-15932238D01*
X13519286Y-15884619D01*
X13528809Y-15856048D01*
X13538333Y-15837000D01*
X13557381Y-15808428D01*
X13566905Y-15798905D01*
X13728809Y-15894143D02*
X13728809Y-16027476D01*
X13681190Y-15817952D02*
X13633571Y-15960809D01*
X13757381Y-15960809D01*
X13919286Y-15894143D02*
X13919286Y-16027476D01*
X13871667Y-15817952D02*
X13824048Y-15960809D01*
X13947857Y-15960809D01*
X14176428Y-16027476D02*
X14176428Y-15827476D01*
X14262143Y-16027476D02*
X14262143Y-15922714D01*
X14252619Y-15903667D01*
X14233571Y-15894143D01*
X14205000Y-15894143D01*
X14185952Y-15903667D01*
X14176428Y-15913190D01*
X14385952Y-16027476D02*
X14366905Y-16017952D01*
X14357381Y-16008428D01*
X14347857Y-15989381D01*
X14347857Y-15932238D01*
X14357381Y-15913190D01*
X14366905Y-15903667D01*
X14385952Y-15894143D01*
X14414524Y-15894143D01*
X14433571Y-15903667D01*
X14443095Y-15913190D01*
X14452619Y-15932238D01*
X14452619Y-15989381D01*
X14443095Y-16008428D01*
X14433571Y-16017952D01*
X14414524Y-16027476D01*
X14385952Y-16027476D01*
X14566905Y-16027476D02*
X14547857Y-16017952D01*
X14538333Y-15998905D01*
X14538333Y-15827476D01*
X14719286Y-16017952D02*
X14700238Y-16027476D01*
X14662143Y-16027476D01*
X14643095Y-16017952D01*
X14633571Y-15998905D01*
X14633571Y-15922714D01*
X14643095Y-15903667D01*
X14662143Y-15894143D01*
X14700238Y-15894143D01*
X14719286Y-15903667D01*
X14728809Y-15922714D01*
X14728809Y-15941762D01*
X14633571Y-15960809D01*
X14805000Y-16017952D02*
X14824048Y-16027476D01*
X14862143Y-16027476D01*
X14881190Y-16017952D01*
X14890714Y-15998905D01*
X14890714Y-15989381D01*
X14881190Y-15970333D01*
X14862143Y-15960809D01*
X14833571Y-15960809D01*
X14814524Y-15951286D01*
X14805000Y-15932238D01*
X14805000Y-15922714D01*
X14814524Y-15903667D01*
X14833571Y-15894143D01*
X14862143Y-15894143D01*
X14881190Y-15903667D01*
X14957381Y-16103667D02*
X14966905Y-16094143D01*
X14985952Y-16065571D01*
X14995476Y-16046524D01*
X15005000Y-16017952D01*
X15014524Y-15970333D01*
X15014524Y-15932238D01*
X15005000Y-15884619D01*
X14995476Y-15856048D01*
X14985952Y-15837000D01*
X14966905Y-15808428D01*
X14957381Y-15798905D01*
M02*
